<?xml version="1.0"?>
<svg width="639.9999999999999" height="480" xmlns="http://www.w3.org/2000/svg" xmlns:svg="http://www.w3.org/2000/svg">
 <!-- Created with SVG-edit - https://github.com/SVG-Edit/svgedit-->
 <g class="layer">
  <title>Layer 1</title>
  <rect fill="#FF0000" height="107" id="svg_1" stroke="#000000" stroke-width="5" width="227" x="-266.9" y="-346.5"/>
  <ellipse cx="189.1" cy="-266.5" fill="#FF0000" id="svg_2" rx="156" ry="64" stroke="#000000" stroke-width="5"/>
  <rect fill="#21ff00" height="403.99993" id="svg_4" stroke="#000000" stroke-width="5" width="567.99996" x="24.30004" y="48.50003"/>
  <text fill="#000000" font-family="serif" font-size="24" id="svg_5" stroke-width="5" text-anchor="middle" transform="matrix(8.01919 0 0 8.16415 -1639.19 -1298.04)" x="242.78967" xml:space="preserve" y="197.07755">CFGA</text>
  <polygon fill="#000000" id="svg_6"/>
  <polygon fill="#ff00ff" id="svg_14" points="104.79995727539062,317.6450500488281 122.12550354003906,358.2917785644531 174.882568359375,359.1685485839844 132.83303833007812,385.1663513183594 148.11343383789062,426.3549499511719 104.79995727539062,401.7757263183594 61.486663818359375,426.3549499511719 76.76704406738281,385.1663513183594 34.717437744140625,359.1685485839844 87.47467041015625,358.2917785644531 104.79995727539062,317.6450500488281 122.12550354003906,358.2917785644531 " stroke-width="5"/>
  <polygon fill="#ffff00" id="svg_20" points="123.5,152.5 123.5,152.5 123.5,152.5 123.5,152.5 123.5,152.5 123.5,152.5 123.5,152.5 123.5,152.5 123.5,152.5 123.5,152.5 123.5,152.5 123.5,152.5 " stroke-width="5"/>
  <polygon fill="#ff00ff" id="svg_21" points="495.9999542236328,83.64505004882812 513.3255004882812,124.29177856445312 566.0825805664062,125.16854858398438 524.0330352783203,151.16635131835938 539.3134155273438,192.35494995117188 495.9999542236328,167.77572631835938 452.68666076660156,192.35494995117188 467.967041015625,151.16635131835938 425.9174346923828,125.16854858398438 478.67466735839844,124.29177856445312 495.9999542236328,83.64505004882812 513.3255004882812,124.29177856445312 " stroke-width="5"/>
  <path d="m73.89805,103.74998c-92.45632,58.43751 105.96117,32.9375 105.96117,32.9375c0,0 6.23301,-11.6875 19.73786,-15.9375c13.50486,-4.25 193.22331,11.6875 193.22331,11.6875c0,0 83.10681,-59.5 83.10681,-59.5c0,0 40.51457,-5.31249 40.51457,-5.31249c0,0 55.05825,32.9375 55.05825,32.9375c0,0 -3.11651,320.87499 -3.11651,320.87499c0,0 -93.49515,-106.25 -105.96117,-59.5c-12.46602,46.75 -60.25243,91.37499 -76.87379,68c-16.62136,-23.375 45.70874,-118.99999 -43.63107,-59.5c-89.33982,59.5 -107.00001,52.0625 -135.04855,55.25c-28.04855,3.1875 -64.40778,11.6875 -64.40778,11.6875c0,0 -102.84466,2.125 -102.84466,2.125c0,0 -3.11651,-373.99999 -3.11651,-373.99999c0,0 37.39807,38.25 37.39807,38.25l0,-0.00001z" fill="none" id="svg_24" stroke="#000000" stroke-dasharray="null" stroke-linecap="null" stroke-linejoin="null" stroke-width="5"/>
  <polygon fill="none" id="svg_25" points="150.5,93.5 150.5,93.5 150.5,93.5 150.5,93.5 150.5,93.5 150.5,93.5 150.5,93.5 150.5,93.5 150.5,93.5 150.5,93.5 150.5,93.5 150.5,93.5 " stroke="#000000" stroke-width="5"/>
  <polygon fill="#00ffff" id="svg_26" points="104.5,53.29005432128906 113.48369598388672,79.13500213623047 140.83981323242188,79.69247436523438 119.03592681884766,96.22300720214844 126.95924377441406,122.4124984741211 104.5,106.78398132324219 82.04075622558594,122.4124984741211 89.96407318115234,96.22300720214844 68.1601791381836,79.69247436523438 95.51630401611328,79.13500213623047 104.5,53.29005432128906 113.48369598388672,79.13500213623047 " stroke="#000000" stroke-width="5"/>
  <polygon fill="#21ff00" id="svg_27" points="107,80.61270141601562 109.27362060546875,86.60714721679688 116.1970443725586,86.73645782470703 110.67882537841797,90.5705337524414 112.68408203125,96.64488983154297 107,93.0200424194336 101.31591796875,96.64488983154297 103.32117462158203,90.5705337524414 97.8029556274414,86.73645782470703 104.72637176513672,86.60714721679688 107,80.61270141601562 109.27362060546875,86.60714721679688 " stroke="#000000" stroke-width="5"/>
  <polygon fill="#00ffff" id="svg_28" points="398.5,89.5 398.5,89.5 398.5,89.5 398.5,89.5 398.5,89.5 398.5,89.5 398.5,89.5 398.5,89.5 398.5,89.5 398.5,89.5 398.5,89.5 398.5,89.5 " stroke="#000000" stroke-width="5"/>
  <polygon fill="#21ff00" id="svg_29" points="382.5,88.5 382.5,88.5 382.5,88.5 382.5,88.5 382.5,88.5 382.5,88.5 382.5,88.5 382.5,88.5 382.5,88.5 382.5,88.5 382.5,88.5 382.5,88.5 " stroke="#000000" stroke-width="5"/>
  <polygon fill="#21ff00" id="svg_30" points="288.5,30.5 288.5,30.5 288.5,30.5 288.5,30.5 288.5,30.5 288.5,30.5 288.5,30.5 288.5,30.5 288.5,30.5 288.5,30.5 288.5,30.5 288.5,30.5 " stroke="#000000" stroke-width="5"/>
  <polygon fill="#21ff00" id="svg_31"/>
  <polygon fill="#21ff00" id="svg_32" points="349.5,56.82432596890433 355.30159891434175,73.51478414447482 372.96796058124863,73.87479737673488 358.88718423249946,84.55008104930604 364.0039972858544,101.46303963881296 349.5,91.37026961243826 334.9960027141456,101.46303963881296 340.11281576750054,84.55008104930604 326.03203941875137,73.87479737673488 343.69840108565825,73.51478414447482 349.5,56.82432596890433 355.30159891434175,73.51478414447482 " stroke-width="5"/>
  <polygon fill="#21ff00" id="svg_33" points="426.5,67.5 426.5,67.5 426.5,67.5 426.5,67.5 426.5,67.5 426.5,67.5 426.5,67.5 426.5,67.5 426.5,67.5 426.5,67.5 426.5,67.5 426.5,67.5 " stroke-width="5"/>
  <polygon fill="#21ff00" id="svg_34" points="103.5,93.5 103.5,93.5 103.5,93.5 103.5,93.5 103.5,93.5 103.5,93.5 103.5,93.5 103.5,93.5 103.5,93.5 103.5,93.5 103.5,93.5 103.5,93.5 " stroke-width="5"/>
  <polygon fill="#21ff00" id="svg_35" points="109.5,107.5 109.5,107.5 109.5,107.5 109.5,107.5 109.5,107.5 109.5,107.5 109.5,107.5 109.5,107.5 109.5,107.5 109.5,107.5 109.5,107.5 109.5,107.5 " stroke-width="5"/>
  <polygon fill="#21ff00" id="svg_36" points="123.5,113.5 123.5,113.5 123.5,113.5 123.5,113.5 123.5,113.5 123.5,113.5 123.5,113.5 123.5,113.5 123.5,113.5 123.5,113.5 123.5,113.5 123.5,113.5 " stroke-width="5"/>
  <polygon fill="#21ff00" id="svg_37" points="278.5,71.5 278.5,71.5 278.5,71.5 278.5,71.5 278.5,71.5 278.5,71.5 278.5,71.5 278.5,71.5 278.5,71.5 278.5,71.5 278.5,71.5 278.5,71.5 " stroke-width="5"/>
  <polygon fill="#21ff00" id="svg_38" points="121.5,121.5 121.5,121.5 121.5,121.5 121.5,121.5 121.5,121.5 121.5,121.5 121.5,121.5 121.5,121.5 121.5,121.5 121.5,121.5 121.5,121.5 121.5,121.5 " stroke-width="5"/>
  <polygon fill="#00ffff" id="svg_3" points="497.6000061035156,374.8387756347656 506.5837097167969,400.68373107910156 533.9398193359375,401.24119567871094 512.1359252929688,417.771728515625 520.0592651367188,443.9612121582031 497.6000061035156,428.33270263671875 475.1407470703125,443.9612121582031 483.0640869140625,417.771728515625 461.26019287109375,401.24119567871094 488.6163024902344,400.68373107910156 497.6000061035156,374.8387756347656 506.5837097167969,400.68373107910156 " stroke="#000000" stroke-width="5"/>
  <polygon fill="#21ff00" id="svg_7" points="498.6000061035156,400.38389587402344 500.8736267089844,406.3783416748047 507.79705810546875,406.5076599121094 502.2788391113281,410.3417205810547 504.2840881347656,416.41607666015625 498.6000061035156,412.7912292480469 492.9159240722656,416.41607666015625 494.9211730957031,410.3417205810547 489.4029541015625,406.5076599121094 496.3263854980469,406.3783416748047 498.6000061035156,400.38389587402344 500.8736267089844,406.3783416748047 " stroke="#000000" stroke-width="5"/>
 </g>
</svg>